<svg xmlns="http://www.w3.org/2000/svg" version="1.1" xmlns:xlink="http://www.w3.org/1999/xlink" xmlns:svgjs="http://svgjs.dev/svgjs" width="800" height="808" viewBox="0 0 800 808"><g transform="matrix(1,0,0,1,-2.5301088883342118,8.019686091808126)"><svg viewBox="0 0 95 96" data-background-color="#ffffff" preserveAspectRatio="xMidYMid meet" height="808" width="800" xmlns="http://www.w3.org/2000/svg" xmlns:xlink="http://www.w3.org/1999/xlink"><g id="tight-bounds" transform="matrix(1,0,0,1,1.139774541147304,0.2594999999999743)"><svg viewBox="0 0 92.7204509177054 95.481" height="95.481" width="92.7204509177054"><g><svg viewBox="0 0 92.7204509177054 95.481" height="95.481" width="92.7204509177054"><g><svg viewBox="0 0 92.7204509177054 95.481" height="95.481" width="92.7204509177054"><g id="textblocktransform"><svg viewBox="0 0 92.7204509177054 95.481" height="95.481" width="92.7204509177054" id="textblock"><g><svg viewBox="0 0 92.7204509177054 95.481" height="95.481" width="92.7204509177054"><g><svg viewBox="0 0 92.7204509177054 95.481" height="95.481" width="92.7204509177054"><g><svg xmlns="http://www.w3.org/2000/svg" viewBox="3.9861034428496867 3.152050807568878 56.02779311430062 57.69589838486224" x="0" y="0" height="95.481" width="92.7204509177054" class="icon-icon-0" data-fill-palette-color="accent" id="icon-0"><g fill="#000000" data-fill-palette-color="accent"><path d="M5 21.74L31 36.58a2 2 0 0 0 2 0L59 21.74a2 2 0 0 0 0-3.48L33 3.42a2 2 0 0 0-2 0L5 18.26a2 2 0 0 0 0 3.48ZM32 5.15L58 20 32 34.85 6 20Z" fill="#000000" data-fill-palette-color="accent"></path><path d="M5 33.71L31 48.58a2 2 0 0 0 2 0L59 33.71A2 2 0 0 0 60 32a2 2 0 0 0-1-1.74l-3.48-2.11a1 1 0 1 0-1 1.7L58 32 32 46.85 6 32l3.48-2.12a1 1 0 1 0-1-1.7L4.93 30.26A2 2 0 0 0 4 32 2 2 0 0 0 5 33.71Z" fill="#000000" data-fill-palette-color="accent"></path><path d="M59.07 42.26l-3.48-2.11a1 1 0 0 0-1 1.7L58 44 32 58.85 6 44l3.48-2.12a1 1 0 0 0-1-1.7L4.93 42.26A2 2 0 0 0 4 44a2 2 0 0 0 1 1.71L31 60.58a2 2 0 0 0 2 0L59 45.71A2 2 0 0 0 60 44 2 2 0 0 0 59.07 42.26Z" fill="#000000" data-fill-palette-color="accent"></path></g></svg></g></svg></g></svg></g></svg></g></svg></g></svg></g><defs></defs></svg><rect width="92.7204509177054" height="95.481" fill="none" stroke="none" visibility="hidden"></rect></g></svg></g></svg>