<svg xmlns="http://www.w3.org/2000/svg" version="1.1" xmlns:xlink="http://www.w3.org/1999/xlink" xmlns:svgjs="http://svgjs.dev/svgjs" width="2000" height="343" viewBox="0 0 2000 343"><g transform="matrix(1,0,0,1,-1.2121212121212466,3.529045900714607)"><svg viewBox="0 0 396 68" data-background-color="#ffffff" preserveAspectRatio="xMidYMid meet" height="343" width="2000" xmlns="http://www.w3.org/2000/svg" xmlns:xlink="http://www.w3.org/1999/xlink"><g id="tight-bounds" transform="matrix(1,0,0,1,0.2400000000000091,0.16056514714176728)"><svg viewBox="0 0 395.52 67.67886970571644" height="67.67886970571644" width="395.52"><g><svg viewBox="0 0 513.3010587495176 87.83281622905264" height="67.67886970571644" width="395.52"><g transform="matrix(1,0,0,1,117.78105874951747,8.996155482947373)"><svg viewBox="0 0 395.52000000000004 69.8405052631579" height="69.8405052631579" width="395.52000000000004"><g id="textblocktransform"><svg viewBox="0 0 395.52000000000004 69.8405052631579" height="69.8405052631579" width="395.52000000000004" id="textblock"><g><svg viewBox="0 0 395.52000000000004 69.8405052631579" height="69.8405052631579" width="395.52000000000004"><g transform="matrix(1,0,0,1,0,0)"><svg width="395.52000000000004" viewBox="4.1 -32.85 189.99 33.550000000000004" height="69.8405052631579" data-palette-color="#000000"><path d="M9.45-29.95L9.45-12.35 4.1-12.4 4.1-27.5Q4.1-28.8 4.9-29.58 5.7-30.35 7-30.35L7-30.35Q7.75-30.35 8.45-30.2 9.15-30.05 9.45-29.95L9.45-29.95ZM20.5-12.45L6.95-12.45 6.95-16.85 21.9-16.85Q22.1-16.5 22.28-15.95 22.45-15.4 22.45-14.75L22.45-14.75Q22.45-13.65 21.95-13.05 21.45-12.45 20.5-12.45L20.5-12.45ZM22.2-25.95L7-25.95 7-30.35 23.6-30.35Q23.8-30.05 24-29.48 24.2-28.9 24.2-28.25L24.2-28.25Q24.2-27.15 23.68-26.55 23.15-25.95 22.2-25.95L22.2-25.95ZM4.1-2.15L4.1-16.9 9.5-16.9 9.5-0.05Q9.2 0.05 8.5 0.18 7.8 0.3 7.05 0.3L7.05 0.3Q5.55 0.3 4.83-0.28 4.1-0.85 4.1-2.15L4.1-2.15ZM51.95-11.7L51.95-11.7Q51.95-7.95 50.5-5.15 49.05-2.35 46.37-0.83 43.7 0.7 40.1 0.7L40.1 0.7Q36.55 0.7 33.85-0.83 31.15-2.35 29.7-5.13 28.25-7.9 28.25-11.7L28.25-11.7Q28.25-15.55 29.72-18.3 31.2-21.05 33.9-22.58 36.6-24.1 40.15-24.1L40.15-24.1Q43.65-24.1 46.32-22.58 49-21.05 50.47-18.28 51.95-15.5 51.95-11.7ZM40.1-19.9L40.1-19.9Q37.15-19.9 35.4-17.73 33.65-15.55 33.65-11.7L33.65-11.7Q33.65-7.85 35.35-5.7 37.05-3.55 40.1-3.55L40.1-3.55Q43.15-3.55 44.87-5.73 46.6-7.9 46.6-11.7L46.6-11.7Q46.6-15.55 44.87-17.73 43.15-19.9 40.1-19.9ZM62.85-18.35L62.85-18.35 62.85-11.05 57.6-11.05 57.6-18.5Q57.6-19.7 58.1-20.5 58.6-21.3 59.7-22L59.7-22Q61.1-22.9 63.4-23.5 65.7-24.1 68.34-24.1L68.34-24.1Q72.75-24.1 72.75-21.6L72.75-21.6Q72.75-20.95 72.57-20.43 72.4-19.9 72.15-19.55L72.15-19.55Q71.65-19.65 70.87-19.75 70.09-19.85 69.25-19.85L69.25-19.85Q67.25-19.85 65.59-19.4 63.95-18.95 62.85-18.35ZM57.6-2.1L57.6-13.2 62.85-12.75 62.85-0.1Q62.5 0.05 61.85 0.18 61.2 0.3 60.45 0.3L60.45 0.3Q59 0.3 58.3-0.25 57.6-0.8 57.6-2.1L57.6-2.1ZM96.89-16.2L96.89-16.2 96.89-10.45 91.64-10.45 91.64-15.65Q91.64-17.85 90.37-18.88 89.09-19.9 87.04-19.9L87.04-19.9Q85.64-19.9 84.42-19.45 83.19-19 82.34-18.45L82.34-18.45 82.34-10.45 77.09-10.45 77.09-18.6Q77.09-19.7 77.54-20.45 77.99-21.2 79.04-21.85L79.04-21.85Q80.49-22.8 82.69-23.45 84.89-24.1 87.19-24.1L87.19-24.1Q89.64-24.1 91.67-23.35 93.69-22.6 94.84-21.15L94.84-21.15Q95.19-20.85 95.44-20.58 95.69-20.3 95.89-19.9L95.89-19.9Q96.29-19.25 96.59-18.28 96.89-17.3 96.89-16.2ZM111.44-15.85L111.44-15.85 111.44-10.45 106.19-10.45 106.19-15.65Q106.19-17.85 104.94-18.88 103.69-19.9 101.64-19.9L101.64-19.9Q100.14-19.9 98.72-19.25 97.29-18.6 96.24-17.5L96.24-17.5 93.79-20.95Q95.19-22.25 97.29-23.18 99.39-24.1 102.24-24.1L102.24-24.1Q104.89-24.1 106.97-23.25 109.04-22.4 110.24-20.58 111.44-18.75 111.44-15.85ZM77.09-2.1L77.09-13 82.34-13 82.34-0.1Q81.99 0.05 81.34 0.18 80.69 0.3 79.94 0.3L79.94 0.3Q78.49 0.3 77.79-0.25 77.09-0.8 77.09-2.1L77.09-2.1ZM91.64-2.1L91.64-13 96.89-13 96.89-0.1Q96.54 0.05 95.89 0.18 95.24 0.3 94.49 0.3L94.49 0.3Q92.99 0.3 92.32-0.25 91.64-0.8 91.64-2.1L91.64-2.1ZM106.19-2.1L106.19-13 111.44-13 111.44-0.1Q111.09 0.05 110.44 0.18 109.79 0.3 109.04 0.3L109.04 0.3Q107.54 0.3 106.87-0.25 106.19-0.8 106.19-2.1L106.19-2.1ZM129.49-24.1L129.49-24.1Q132.69-24.1 135.22-22.75 137.74-21.4 139.22-18.65 140.69-15.9 140.69-11.75L140.69-11.75Q140.69-7.55 139.17-4.8 137.64-2.05 134.92-0.68 132.19 0.7 128.54 0.7L128.54 0.7Q125.84 0.7 123.77 0.05 121.69-0.6 120.39-1.45L120.39-1.45Q119.34-2.15 118.89-2.85 118.44-3.55 118.44-4.7L118.44-4.7 118.44-21.05 123.64-21.05 123.64-4.9Q124.34-4.4 125.62-3.98 126.89-3.55 128.49-3.55L128.49-3.55Q131.59-3.55 133.47-5.55 135.34-7.55 135.34-11.75L135.34-11.75Q135.34-16 133.47-17.95 131.59-19.9 128.64-19.9L128.64-19.9Q126.79-19.9 125.34-19.18 123.89-18.45 122.94-17.55L122.94-17.55 122.39-21.8Q123.49-22.6 125.29-23.35 127.09-24.1 129.49-24.1ZM123.69-30.4L123.69-19.9 118.44-19.9 118.44-32.45Q118.74-32.55 119.42-32.7 120.09-32.85 120.84-32.85L120.84-32.85Q122.29-32.85 122.99-32.3 123.69-31.75 123.69-30.4L123.69-30.4ZM168.79-11.7L168.79-11.7Q168.79-7.95 167.34-5.15 165.89-2.35 163.21-0.83 160.54 0.7 156.94 0.7L156.94 0.7Q153.39 0.7 150.69-0.83 147.99-2.35 146.54-5.13 145.09-7.9 145.09-11.7L145.09-11.7Q145.09-15.55 146.56-18.3 148.04-21.05 150.74-22.58 153.44-24.1 156.99-24.1L156.99-24.1Q160.49-24.1 163.16-22.58 165.84-21.05 167.31-18.28 168.79-15.5 168.79-11.7ZM156.94-19.9L156.94-19.9Q153.99-19.9 152.24-17.73 150.49-15.55 150.49-11.7L150.49-11.7Q150.49-7.85 152.19-5.7 153.89-3.55 156.94-3.55L156.94-3.55Q159.99-3.55 161.71-5.73 163.44-7.9 163.44-11.7L163.44-11.7Q163.44-15.55 161.71-17.73 159.99-19.9 156.94-19.9ZM181.64-13.75L181.64-13.75 182.64-14Q184.59-16.55 186.34-18.82 188.09-21.1 189.94-23.75L189.94-23.75Q190.14-23.8 190.29-23.8 190.44-23.8 190.59-23.8L190.59-23.8Q191.99-23.8 192.81-23.18 193.64-22.55 193.64-21.5L193.64-21.5Q193.64-20.75 193.29-20.13 192.94-19.5 192.14-18.5L192.14-18.5Q190.54-16.6 188.91-14.65 187.29-12.7 185.74-10.85L185.74-10.85 184.09-9.75Q182.29-7.3 180.41-4.75 178.54-2.2 176.79 0.3L176.79 0.3Q176.69 0.3 176.39 0.3 176.09 0.3 175.99 0.3L175.99 0.3Q174.44 0.3 173.64-0.35 172.84-1 172.84-2L172.84-2Q172.84-2.6 173.14-3.18 173.44-3.75 174.29-4.8L174.29-4.8Q176.04-7.05 177.94-9.28 179.84-11.5 181.64-13.75ZM184.79-13.45L184.79-13.45 185.99-12.75Q187.99-10.1 190.04-7.5 192.09-4.9 194.09-2.25L194.09-2.25Q193.94-1.05 193.19-0.35 192.44 0.35 191.34 0.35L191.34 0.35Q190.24 0.35 189.51-0.25 188.79-0.85 187.99-1.9L187.99-1.9Q186.59-3.9 185.04-6.08 183.49-8.25 182.09-10.2L182.09-10.2 180.89-11.15Q178.74-13.75 176.81-16.15 174.89-18.55 172.84-21.05L172.84-21.05Q173.09-22.3 173.84-23.05 174.59-23.8 175.64-23.8L175.64-23.8Q176.69-23.8 177.31-23.28 177.94-22.75 178.59-21.8L178.59-21.8Q180.04-19.9 181.59-17.73 183.14-15.55 184.79-13.45Z" opacity="1" transform="matrix(1,0,0,1,0,0)" fill="#000000" class="wordmark-text-0" data-fill-palette-color="primary" id="text-0"></path></svg></g></svg></g></svg></g></svg></g><g><svg viewBox="0 0 101.2933916290122 87.83281622905264" height="87.83281622905264" width="101.2933916290122"><g><svg xmlns="http://www.w3.org/2000/svg" viewBox="3.9861034428496867 3.152050807568878 56.02779311430062 57.69589838486224" x="8" y="0" height="87.83281622905264" width="85.2933916290122" class="icon-icon-0" data-fill-palette-color="accent" id="icon-0"><g fill="#000000" data-fill-palette-color="accent"><path d="M5 21.74L31 36.58a2 2 0 0 0 2 0L59 21.74a2 2 0 0 0 0-3.48L33 3.42a2 2 0 0 0-2 0L5 18.26a2 2 0 0 0 0 3.48ZM32 5.15L58 20 32 34.85 6 20Z" fill="#000000" data-fill-palette-color="accent"></path><path d="M5 33.71L31 48.58a2 2 0 0 0 2 0L59 33.71A2 2 0 0 0 60 32a2 2 0 0 0-1-1.74l-3.48-2.11a1 1 0 1 0-1 1.7L58 32 32 46.85 6 32l3.48-2.12a1 1 0 1 0-1-1.7L4.93 30.26A2 2 0 0 0 4 32 2 2 0 0 0 5 33.71Z" fill="#000000" data-fill-palette-color="accent"></path><path d="M59.07 42.26l-3.48-2.11a1 1 0 0 0-1 1.7L58 44 32 58.85 6 44l3.48-2.12a1 1 0 0 0-1-1.7L4.93 42.26A2 2 0 0 0 4 44a2 2 0 0 0 1 1.71L31 60.58a2 2 0 0 0 2 0L59 45.71A2 2 0 0 0 60 44 2 2 0 0 0 59.07 42.26Z" fill="#000000" data-fill-palette-color="accent"></path></g></svg></g></svg></g></svg></g><defs></defs></svg><rect width="395.52" height="67.67886970571644" fill="none" stroke="none" visibility="hidden"></rect></g></svg></g></svg>