<svg viewBox="481 316.6572 445.8893 78.5475" width="5000" height="880.7959733503361" xmlns="http://www.w3.org/2000/svg" xmlns:xlink="http://www.w3.org/1999/xlink" preserveAspectRatio="none"><defs></defs><style>.companyName {fill:#2B2B2B;fill-opacity:1;}.icon1 {fill:#2B2B2B;fill-opacity:1;}.icon2 {fill:#59C65B;fill-opacity:1;}.icon3 {fill:#6D6D6D;fill-opacity:1;}.icon3-str {stroke:#6D6D6D;stroke-opacity:1;}</style><defs></defs><g opacity="1" transform="rotate(0 481 316.6572)">
<svg width="62.9633" height="78.5475" x="481" y="316.6572" version="1.1" preserveAspectRatio="none" viewBox="3.979454755783081 1.9882570505142212 16.041086196899414 20.01141929626465">
  <g transform="matrix(1 0 0 1 0 0)"><defs><g id="id-IptOCySn0"><title>cards-2</title><path d="M16.984 7l-5.48-3.132a1 1 0 1 1 .992-1.736l7 4a1 1 0 0 1 0 1.736l-7 4a1 1 0 0 1-.992 0l-7-4a1 1 0 0 1 0-1.736l3.865-2.209A1 1 0 1 1 9.36 5.66L7.016 7 12 9.848 16.984 7zm1.52 4.132a1 1 0 1 1 .992 1.736l-7 4a1 1 0 0 1-.992 0l-7-4a1 1 0 1 1 .992-1.736L12 14.848l6.504-3.716zm0 5a1 1 0 1 1 .992 1.736l-7 4a1 1 0 0 1-.992 0l-7-4a1 1 0 1 1 .992-1.736L12 19.848l6.504-3.716z" fill-rule="nonzero"></path></g></defs><use class="icon1" xlink:href="#id-IptOCySn0"></use></g>
</svg>
</g><g opacity="1" transform="rotate(0 573.8629 326.226)">
<svg width="353.0264" height="59.4099" x="573.8629" y="326.226" version="1.1" preserveAspectRatio="none" viewBox="2.2017 -29.0909 175.31140000000002 29.5028">
  <g transform="matrix(1 0 0 1 0 0)" class="companyName"><path id="id-D6z1nYkh7" d="M9.23 0L2.20 0L2.20-29.09L22.06-29.09L22.06-23.38L9.23-23.38L9.23-17.41L20.80-17.41L20.80-11.69L9.23-11.69L9.23 0Z M34.98 0.41L34.98 0.41Q31.54 0.41 29.07-1.00Q26.61-2.41 25.28-4.95Q23.95-7.49 23.95-10.84L23.95-10.84Q23.95-14.20 25.28-16.74Q26.61-19.28 29.07-20.69Q31.54-22.10 34.98-22.10L34.98-22.10Q38.41-22.10 40.88-20.69Q43.34-19.28 44.67-16.74Q46.00-14.20 46.00-10.84L46.00-10.84Q46.00-7.49 44.67-4.95Q43.34-2.41 40.88-1.00Q38.41 0.41 34.98 0.41ZM35.02-4.83L35.02-4.83Q36.27-4.83 37.14-5.60Q38.00-6.36 38.46-7.73Q38.93-9.09 38.93-10.88L38.93-10.88Q38.93-12.70 38.46-14.06Q38.00-15.43 37.14-16.19Q36.27-16.96 35.02-16.96L35.02-16.96Q33.73-16.96 32.84-16.19Q31.95-15.43 31.49-14.06Q31.03-12.70 31.03-10.88L31.03-10.88Q31.03-9.09 31.49-7.73Q31.95-6.36 32.84-5.60Q33.73-4.83 35.02-4.83Z M57.31 0L50.36 0L50.36-21.82L57.11-21.82L57.11-17.84L57.34-17.84Q57.94-20 59.28-21.06Q60.63-22.12 62.42-22.12L62.42-22.12Q62.91-22.12 63.42-22.05Q63.93-21.99 64.37-21.86L64.37-21.86L64.37-15.82Q63.87-15.99 63.07-16.09Q62.27-16.19 61.64-16.19L61.64-16.19Q60.41-16.19 59.42-15.65Q58.43-15.10 57.87-14.13Q57.31-13.15 57.31-11.85L57.31-11.85L57.31 0Z M74.96 0L68.01 0L68.01-21.82L74.62-21.82L74.62-17.81L74.86-17.81Q75.54-19.80 77.16-20.95Q78.78-22.10 81.02-22.10L81.02-22.10Q83.29-22.10 84.91-20.94Q86.53-19.77 86.97-17.81L86.97-17.81L87.20-17.81Q87.81-19.76 89.59-20.93Q91.36-22.10 93.78-22.10L93.78-22.10Q96.87-22.10 98.81-20.12Q100.74-18.14 100.74-14.69L100.74-14.69L100.74 0L93.79 0L93.79-13.10Q93.79-14.73 92.95-15.59Q92.12-16.45 90.78-16.45L90.78-16.45Q89.35-16.45 88.53-15.52Q87.71-14.59 87.71-13.03L87.71-13.03L87.71 0L81.04 0L81.04-13.17Q81.04-14.69 80.21-15.57Q79.39-16.45 78.04-16.45L78.04-16.45Q77.13-16.45 76.43-16.02Q75.74-15.58 75.35-14.79Q74.96-13.99 74.96-12.91L74.96-12.91L74.96 0Z M112.73 0L105.86 0L105.86-29.09L112.80-29.09L112.80-18.08L112.94-18.08Q113.37-19.08 114.16-20Q114.95-20.92 116.18-21.51Q117.40-22.10 119.12-22.10L119.12-22.10Q121.40-22.10 123.38-20.91Q125.36-19.72 126.58-17.23Q127.80-14.74 127.80-10.89L127.80-10.89Q127.80-7.19 126.63-4.69Q125.46-2.19 123.48-0.94Q121.50 0.31 119.08 0.31L119.08 0.31Q117.43 0.31 116.23-0.23Q115.02-0.77 114.20-1.65Q113.38-2.53 112.94-3.54L112.94-3.54L112.73-3.54L112.73 0ZM112.66-10.91L112.66-10.91Q112.66-9.15 113.14-7.84Q113.61-6.53 114.51-5.82Q115.42-5.10 116.68-5.10L116.68-5.10Q117.96-5.10 118.85-5.82Q119.75-6.53 120.21-7.84Q120.67-9.15 120.67-10.91L120.67-10.91Q120.67-12.67 120.21-13.96Q119.75-15.26 118.86-15.97Q117.97-16.68 116.68-16.68L116.68-16.68Q115.40-16.68 114.51-15.98Q113.61-15.28 113.14-13.99Q112.66-12.70 112.66-10.91Z M142.44 0.41L142.44 0.41Q139 0.41 136.54-1.00Q134.07-2.41 132.74-4.95Q131.41-7.49 131.41-10.84L131.41-10.84Q131.41-14.20 132.74-16.74Q134.07-19.28 136.54-20.69Q139-22.10 142.44-22.10L142.44-22.10Q145.88-22.10 148.34-20.69Q150.80-19.28 152.13-16.74Q153.46-14.20 153.46-10.84L153.46-10.84Q153.46-7.49 152.13-4.95Q150.80-2.41 148.34-1.00Q145.88 0.41 142.44 0.41ZM142.48-4.83L142.48-4.83Q143.73-4.83 144.60-5.60Q145.46-6.36 145.92-7.73Q146.39-9.09 146.39-10.88L146.39-10.88Q146.39-12.70 145.92-14.06Q145.46-15.43 144.60-16.19Q143.73-16.96 142.48-16.96L142.48-16.96Q141.19-16.96 140.30-16.19Q139.41-15.43 138.95-14.06Q138.49-12.70 138.49-10.88L138.49-10.88Q138.49-9.09 138.95-7.73Q139.41-6.36 140.30-5.60Q141.19-4.83 142.48-4.83Z M155.92-21.82L162.97-21.82L166.56-14.63L170.28-21.82L177.29-21.82L171.19-10.91L177.51 0L170.57 0L166.56-7.24L162.66 0L155.61 0L161.94-10.91L155.92-21.82Z"/></g>
</svg>
</g></svg>