<svg id="Capa_1" enable-background="new 0 0 512 512" height="512" viewBox="0 0 512 512" width="512" xmlns="http://www.w3.org/2000/svg"><g><g><g><path d="m377.671 241.945c3.737-.447 7.318-.465 10.607.001 1.905-4.368 2.232-11.896.519-20.093-2.545-12.185-5.991-19.559-13.112-18.411-7.12 1.148-7.383 9.975-4.837 22.16 1.432 6.854 3.982 12.713 6.823 16.343z"/><path d="m316.545 251.587c5.095 2.235 8.225 3.717 9.451 2.422.788-.809.552-2.349-.665-4.336-2.513-4.104-7.685-8.267-13.173-10.604-11.222-4.83-24.604-3.224-34.928 4.195-3.408 2.497-6.641 5.956-6.177 8.057.15.679.659 1.19 1.856 1.358 2.81.322 12.631-4.643 23.941-5.336 7.986-.488 14.6 2.009 19.695 4.244z"/><path d="m306.296 257.434c-6.634 1.048-10.295 3.235-12.643 5.27-2.006 1.753-3.245 3.689-3.235 5.052.005.648.286 1.021.507 1.209.302.267.661.415 1.091.415 1.499 0 4.855-1.346 4.855-1.346 9.234-3.305 15.325-2.906 21.362-2.217 3.335.374 4.911.582 5.642-.562.216-.327.479-1.039-.189-2.121-1.552-2.523-8.252-6.784-17.39-5.7z"/><path d="m357.03 278.9c4.505 2.214 9.466 1.345 11.081-1.94 1.614-3.286-.73-7.743-5.235-9.957-4.506-2.213-9.466-1.345-11.081 1.941-1.614 3.284.73 7.742 5.235 9.956z"/><path d="m385.994 253.591c-3.66-.062-6.696 3.957-6.781 8.976-.085 5.018 2.813 9.138 6.473 9.2s6.696-3.957 6.781-8.975c.085-5.02-2.813-9.139-6.473-9.201z"/><path d="m140.159 344.091c-.91-1.141-2.407-.793-3.854-.456-1.012.236-2.158.502-3.414.48-2.692-.052-4.972-1.202-6.252-3.169-1.667-2.56-1.571-6.377.27-10.749.248-.588.54-1.243.858-1.957 2.936-6.585 7.849-17.608 2.333-28.111-4.152-7.905-10.922-12.828-19.063-13.862-7.816-.99-15.862 1.908-20.993 7.57-8.097 8.933-9.362 21.087-7.797 25.382.574 1.573 1.471 2.008 2.123 2.097 1.377.186 3.414-.817 4.691-4.249.092-.248.214-.631.366-1.117.568-1.815 1.627-5.194 3.361-7.903 2.091-3.267 5.348-5.517 9.171-6.336 3.894-.833 7.875-.091 11.207 2.091 5.671 3.712 7.856 10.662 5.434 17.294-1.252 3.429-3.285 9.987-2.837 15.375.907 10.906 7.614 15.286 13.641 15.751 5.86.221 9.955-3.067 10.992-5.473.611-1.421.096-2.287-.237-2.658z"/><path d="m478.345 324.146c-.224-.789-1.675-6.1-3.672-12.501s-4.063-10.906-4.063-10.906c8.007-11.989 8.15-22.711 7.086-28.781-1.138-7.528-4.271-13.942-10.587-20.572-6.316-6.631-19.233-13.421-37.387-18.518-2.077-.582-8.923-2.461-9.526-2.645-.046-.394-.5-22.456-.914-31.927-.301-6.846-.888-17.534-4.205-28.064-3.953-14.249-10.839-26.719-19.435-34.696 23.722-24.59 38.529-51.677 38.494-74.915-.068-44.688-54.951-58.21-122.584-30.204-.072.03-14.228 6.033-14.33 6.084-.063-.062-25.906-25.419-26.295-25.758-77.112-67.26-318.21 200.727-241.127 265.813l16.846 14.27c-4.37 11.32-6.087 24.288-4.684 38.235 1.801 17.913 11.041 35.084 26.016 48.352 14.217 12.595 32.909 20.568 51.048 20.553 29.997 69.126 98.534 111.532 178.897 113.919 86.202 2.56 158.565-37.889 188.886-110.549 1.983-5.1 10.399-28.077 10.399-48.359 0-20.384-11.524-28.831-18.863-28.831zm-352.691 54.405c-2.618.447-5.291.624-7.984.56-26.036-.699-54.159-24.138-56.954-51.935-3.089-30.725 12.61-54.372 40.407-59.977 3.323-.67 7.339-1.056 11.669-.832 15.574.853 38.524 12.813 43.767 46.739 4.643 30.047-2.732 60.641-30.905 65.445zm-29.076-129.733c-17.304 3.364-32.555 13.171-41.881 26.718-5.575-4.649-15.959-13.649-17.793-17.156-14.889-28.272 16.25-83.24 38.002-114.281 53.758-76.716 137.955-134.783 176.932-124.248 6.335 1.793 27.321 26.126 27.321 26.126s-38.961 21.617-75.092 51.75c-48.683 37.486-85.458 91.969-107.489 151.091zm273.286 118.245c.565-.239.956-.886.891-1.528-.08-.789-.785-1.363-1.574-1.283 0 0-40.786 6.038-79.316-8.068 4.196-13.64 15.356-8.714 32.223-7.353 30.402 1.812 57.65-2.629 77.787-8.409 17.45-5.009 40.369-14.882 58.17-28.931 6.005 13.189 8.125 27.704 8.125 27.704s4.648-.832 8.532 1.559c3.67 2.258 6.362 6.954 4.524 19.092-3.743 22.68-13.384 41.086-29.585 58.019-9.861 10.616-21.835 19.846-35.533 26.557-7.275 3.822-15.023 7.128-23.205 9.8-61.076 19.948-123.593-1.983-143.747-49.078-1.609-3.54-2.968-7.246-4.041-11.123-8.589-31.034-1.296-68.268 21.494-91.704.002-.002-.003-.009-.002-.012 1.406-1.493 2.839-3.25 2.839-5.462 0-1.85-1.176-3.801-2.195-5.184-7.973-11.565-35.593-31.273-30.049-69.412 3.981-27.398 27.943-46.695 50.284-45.551 1.887.097 3.777.214 5.661.325 9.682.573 18.128 1.814 26.098 2.148 13.338.575 25.334-1.363 39.54-13.201 4.794-3.995 8.635-7.456 15.137-8.558.682-.116 2.382-.726 5.78-.565 3.468.184 6.77 1.137 9.737 3.112 11.389 7.579 13.005 25.935 13.596 39.363.335 7.665 1.263 26.21 1.58 31.534.724 12.173 3.924 13.89 10.398 16.021 3.64 1.198 7.021 2.092 12.001 3.49 15.077 4.233 24.015 8.527 29.65 14.044 3.36 3.447 4.922 7.11 5.405 10.604 1.779 12.969-10.068 28.99-41.43 43.546-34.282 15.912-75.87 19.941-104.605 16.74-2.204-.245-10.04-1.134-10.067-1.137-22.985-3.097-36.097 26.609-22.302 46.96 8.891 13.116 33.107 21.652 57.336 21.656 55.552.009 98.252-23.715 114.135-44.204.475-.613.522-.68 1.271-1.811.781-1.179.137-1.827-.837-1.161-12.977 8.879-70.617 44.13-132.27 33.526 0 0-7.492-1.232-14.331-3.893-5.435-2.113-16.808-7.345-18.191-19.015 49.758 15.388 81.086.843 81.086.843zm-173.998-223.277c19.111-22.085 42.639-41.286 63.714-52.067.729-.373 1.503.418 1.107 1.135-1.673 3.031-4.895 9.519-5.917 14.442-.159.766.677 1.344 1.323.903 13.112-8.938 35.92-18.514 55.926-19.745.86-.053 1.275 1.049.591 1.574-3.042 2.333-6.37 5.563-8.8 8.83-.414.556-.025 1.356.668 1.361 14.048.099 33.853 5.016 46.759 12.255.874.49.252 2.182-.725 1.958-19.529-4.477-51.498-7.872-84.706.227-29.646 7.231-52.273 18.396-68.781 30.402-.832.607-1.834-.495-1.159-1.275z"/></g></g></g></svg>