<?xml version="1.0" encoding="UTF-8"?>
<svg width="65px" height="64px" viewBox="0 0 65 64" version="1.1" xmlns="http://www.w3.org/2000/svg" xmlns:xlink="http://www.w3.org/1999/xlink">
    <title>Wordpress-Logo</title>
    <g id="Website-v3" stroke="none" stroke-width="1" fill="none" fill-rule="evenodd">
        <g id="Installation-Guides-Index" transform="translate(-1132.000000, -2270.000000)" fill="#1E8CBE" fill-rule="nonzero">
            <g id="Group-9" transform="translate(1105.000000, 2270.000000)">
                <g id="Wordpress-Logo" transform="translate(27.500000, 0.000000)">
                    <path d="M4.53099187,31.875122 C4.53099187,42.6989268 10.8212033,52.052813 19.9425041,56.4854634 L6.89847154,20.7464065 C5.38120325,24.147252 4.53099187,27.9107642 4.53099187,31.875122 Z" id="Path"></path>
                    <path d="M50.3362602,30.4952195 C50.3362602,27.1157073 49.1223415,24.7752846 48.0811707,22.953626 C46.6950244,20.7011382 45.3957724,18.793626 45.3957724,16.5411382 C45.3957724,14.0274472 47.3022439,11.6875447 49.9876423,11.6875447 C50.108878,11.6875447 50.2238699,11.7026341 50.3419837,11.7093984 C45.4769431,7.25229268 38.995252,4.53099187 31.8761626,4.53099187 C22.3229919,4.53099187 13.9181789,9.43245528 9.02868293,16.8564553 C9.6702439,16.8757073 10.2748618,16.8892358 10.7884228,16.8892358 C13.6486504,16.8892358 18.0760976,16.5421789 18.0760976,16.5421789 C19.5501789,16.4552846 19.7239675,18.6203577 18.2514472,18.7946667 C18.2514472,18.7946667 16.7700813,18.9689756 15.1216911,19.0553496 L25.0796748,48.6748618 L31.063935,30.7272846 L26.8035122,19.0543089 C25.3309919,18.967935 23.936,18.793626 23.936,18.793626 C22.462439,18.707252 22.635187,16.4542439 24.108748,16.5411382 C24.108748,16.5411382 28.6246504,16.8881951 31.3116098,16.8881951 C34.1713171,16.8881951 38.5992846,16.5411382 38.5992846,16.5411382 C40.0744065,16.4542439 40.2476748,18.6193171 38.7746341,18.793626 C38.7746341,18.793626 37.2901463,18.967935 35.644878,19.0543089 L45.5268943,48.449561 L48.254439,39.3350244 C49.4366179,35.5527805 50.3362602,32.8361626 50.3362602,30.4952195 Z" id="Path"></path>
                    <path d="M32.3559024,34.2670569 L24.1514146,58.1078374 C26.6011057,58.8279675 29.1918049,59.2218537 31.8761626,59.2218537 C35.0605528,59.2218537 38.1143415,58.6713496 40.956878,57.6718049 C40.8835122,57.5547317 40.8169106,57.430374 40.7622764,57.2950894 L32.3559024,34.2670569 Z" id="Path"></path>
                    <path d="M55.870439,18.7556423 C55.9880325,19.6266667 56.0546341,20.5616911 56.0546341,21.5674797 C56.0546341,24.342374 55.5363902,27.4617236 53.9754146,31.3620813 L45.6226341,55.511935 C53.7521951,50.771252 59.2202929,41.9637073 59.2202929,31.8756423 C59.220813,27.1214309 58.006374,22.6507967 55.870439,18.7556423 Z" id="Path"></path>
                    <path d="M31.8761626,0 C14.3000976,0 0,14.2990569 0,31.875122 C0,49.4532683 14.3000976,63.7518049 31.8761626,63.7518049 C49.4517073,63.7518049 63.7538862,49.4532683 63.7538862,31.875122 C63.7538862,14.2990569 49.4517073,0 31.8761626,0 Z M31.8761626,62.2907317 C15.1060813,62.2907317 1.4615935,48.6462439 1.4615935,31.875122 C1.4615935,15.1050407 15.105561,1.4615935 31.8761626,1.4615935 C48.6457236,1.4615935 62.2891707,15.1050407 62.2891707,31.875122 C62.2891707,48.6462439 48.6457236,62.2907317 31.8761626,62.2907317 Z" id="Shape"></path>
                </g>
            </g>
        </g>
    </g>
</svg>